<?xml version="1.0" encoding="UTF-8" standalone="no"?>
<svg
   xmlns:dc="http://purl.org/dc/elements/1.1/"
   xmlns:cc="http://creativecommons.org/ns#"
   xmlns:rdf="http://www.w3.org/1999/02/22-rdf-syntax-ns#"
   xmlns:svg="http://www.w3.org/2000/svg"
   xmlns="http://www.w3.org/2000/svg"
   xmlns:sodipodi="http://sodipodi.sourceforge.net/DTD/sodipodi-0.dtd"
   xmlns:inkscape="http://www.inkscape.org/namespaces/inkscape"
   width="1024"
   height="1024"
   viewBox="0 0 270.93333 270.93334"
   version="1.1"
   id="svg3257"
   sodipodi:docname="artifactSequencingDisabled.svg"
   inkscape:export-filename="C:\Users\CPC1\Desktop\Github\chev2\RoR2-Mods\ArtifactOfSequencing\Properties\texArtifactSequencingDisabled.png"
   inkscape:export-xdpi="6"
   inkscape:export-ydpi="6"
   inkscape:version="1.0.2 (e86c870879, 2021-01-15, custom)">
  <defs
     id="defs3251" />
  <sodipodi:namedview
     id="base"
     pagecolor="#ffffff"
     bordercolor="#666666"
     borderopacity="1.0"
     inkscape:pageopacity="0.0"
     inkscape:pageshadow="2"
     inkscape:zoom="0.35355339"
     inkscape:cx="-138.93012"
     inkscape:cy="452.90551"
     inkscape:document-units="mm"
     inkscape:current-layer="layer1"
     inkscape:document-rotation="0"
     showgrid="false"
     units="px"
     inkscape:window-width="1920"
     inkscape:window-height="1017"
     inkscape:window-x="-8"
     inkscape:window-y="-8"
     inkscape:window-maximized="1" />
  <metadata
     id="metadata3254">
    <rdf:RDF>
      <cc:Work
         rdf:about="">
        <dc:format>image/svg+xml</dc:format>
        <dc:type
           rdf:resource="http://purl.org/dc/dcmitype/StillImage" />
        <dc:title></dc:title>
      </cc:Work>
    </rdf:RDF>
  </metadata>
  <g
     inkscape:label="Layer 1"
     inkscape:groupmode="layer"
     id="layer1">
    <path
       id="path3259"
       style="fill:#473d44;fill-opacity:1;stroke:#101010;stroke-width:6.35;stroke-linejoin:round;paint-order:markers stroke fill;stroke-opacity:1;stroke-miterlimit:4;stroke-dasharray:none"
       d="m 104.83398,82.480469 c -13.463837,7.759413 -23.769227,20.830371 -28.089839,35.765621 -4.47376,15.12255 -2.79166,31.96415 4.656618,45.87308 6.338882,11.97988 16.745251,21.77737 29.166451,27.23224 10.68772,4.7764 22.75656,6.42217 34.32282,4.57164 12.90012,-1.97648 25.09413,-8.2256 34.21713,-17.56053 9.19964,-9.3169 15.24917,-21.66304 16.99273,-34.63883 2.10373,-15.06681 -1.71101,-30.86241 -10.47296,-43.30058 C 180.58926,93.270604 174.03427,87.181078 166.5,82.728516 c -0.7098,-0.04814 -0.99941,0.538841 -1.33844,1.051125 -2.02863,2.834781 -4.11552,5.626633 -6.16156,8.448875 -0.0432,0.744967 0.53423,1.034913 1.12231,1.317033 13.33155,7.707201 22.48069,22.142501 23.79068,37.483431 1.07324,11.76083 -2.24937,23.84233 -9.33044,33.35813 -3.56814,4.85165 -8.10833,9.01533 -13.14098,12.1913 -8.38072,5.33308 -18.4448,7.99824 -28.33415,7.46659 -6.70165,-0.32379 -13.45326,-2.08143 -19.45464,-5.09929 -6.81262,-3.40081 -12.78673,-8.441 -17.297311,-14.57462 -5.515161,-7.43607 -8.958971,-16.70421 -9.451893,-26.0745 -0.632879,-11.21491 2.659713,-22.58467 9.376891,-31.64384 4.354293,-5.90331 10.050503,-10.813356 16.541803,-14.232828 0.35492,-0.661437 -0.0448,-1.167164 -0.47137,-1.667366 -2.06488,-2.825071 -4.12977,-5.650142 -6.19465,-8.475212 -0.55012,-0.208105 -0.84975,-0.141591 -1.32227,0.203125 z" />
    <path
       id="path4017"
       style="fill:#473d44;fill-opacity:1;stroke:#101010;stroke-width:6.35;stroke-linejoin:round;paint-order:markers stroke fill;stroke-opacity:1;stroke-miterlimit:4;stroke-dasharray:none"
       d="m 78.796875,68.429688 c -16.09704,13.639766 -27.090294,33.210882 -30.128528,54.109762 -2.973047,19.82383 1.082125,40.63829 11.404999,57.83488 8.841168,14.84344 22.12767,27.02455 37.780531,34.37027 13.745833,6.52749 29.201013,9.42477 44.375743,8.21186 17.62858,-1.34512 34.81745,-8.13508 48.51531,-19.33058 12.83991,-10.41915 22.67163,-24.51787 27.89191,-40.21647 4.58205,-13.55059 5.74622,-28.22667 3.37956,-42.33245 -2.36968,-14.38771 -8.37478,-28.173829 -17.4222,-39.620043 -4.05728,-5.175722 -8.69838,-9.891294 -13.79342,-14.048714 -0.68128,-0.168901 -1.06747,0.361056 -1.49819,0.785572 -2.39123,2.28632 -4.78245,4.57264 -7.17368,6.858959 -0.16512,0.731505 0.35582,1.111734 0.8987,1.480731 16.58788,13.203758 26.92031,33.758705 28.07028,54.886755 0.85128,14.96897 -3.00658,30.23274 -10.78385,43.11589 -6.86682,11.46854 -16.8684,21.12682 -28.68904,27.44743 -8.20025,4.44661 -17.27932,7.37715 -26.46177,8.58572 -6.11364,0.81311 -12.36901,0.86317 -18.44253,0.13582 -7.12861,-0.86781 -14.11241,-2.70148 -20.74414,-5.51367 -5.40181,-2.28672 -10.757543,-5.31307 -15.512891,-8.81769 -13.146959,-9.5834 -22.861397,-23.64584 -27.535798,-39.19953 -2.922195,-9.62699 -3.887848,-19.86921 -2.733123,-29.85425 1.054741,-9.72502 4.069936,-19.35655 8.718783,-27.963815 4.051876,-7.546533 9.420081,-14.381892 15.813031,-20.084641 1.283146,-1.143769 2.680912,-2.317313 4.06836,-3.40039 0.230448,-0.713318 -0.253494,-1.139628 -0.760136,-1.556817 -2.415241,-2.307884 -4.830482,-4.615768 -7.245724,-6.923652 -0.667225,-0.217481 -1.090899,0.282922 -1.55132,0.675013 -0.146955,0.12135 -0.293911,0.2427 -0.440867,0.36405 z" />
    <path
       id="path4034"
       style="fill:#473d44;fill-opacity:1;stroke:#101010;stroke-width:6.35;stroke-linejoin:round;paint-order:markers stroke fill;stroke-opacity:1;stroke-miterlimit:4;stroke-dasharray:none"
       d="M 44.376953,70.339844 C 32.173958,87.434707 24.762194,107.98037 23.656195,128.98092 c -1.16291,20.47843 3.318848,41.28381 13.07742,59.34581 10.035877,18.74558 25.4777,34.58413 44.085087,44.90348 18.180153,10.15701 39.218278,15.17291 60.028658,14.11432 22.67274,-1.09521 44.98981,-9.20096 62.9397,-23.12381 16.72067,-12.88995 29.73559,-30.56262 36.89906,-50.43671 6.64676,-18.20924 8.47725,-38.15899 5.13861,-57.26041 -2.81746,-16.36424 -9.25046,-32.125352 -18.88723,-45.662272 -0.20773,-0.796541 -1.19924,-0.799564 -1.74807,-0.358587 -2.67057,1.276277 -5.34542,2.547138 -8.01755,3.821478 -0.35442,0.623912 -0.0561,1.124842 0.38204,1.599423 7.01122,9.717995 12.22902,20.680084 15.46871,32.144558 2.70067,9.58018 4.01652,19.46921 3.85237,29.41618 -0.46351,27.51487 -12.80263,54.55048 -33.23061,73.09409 -13.81034,12.50308 -31.13086,21.03722 -49.42356,24.51624 -13.24911,2.56037 -27.01534,2.38955 -40.19151,-0.5306 C 102.08228,231.94058 90.639278,227.16973 80.41604,220.61152 70.248288,214.09845 61.295674,205.7113 54.129584,195.99315 43.279984,181.33689 36.361806,163.71597 34.55069,145.65973 32.188139,122.02811 38.456548,97.579244 51.944681,77.947842 c 0.650491,-0.961446 1.334819,-1.898897 2.016257,-2.838467 0.01177,-0.718501 -0.489707,-1.015142 -1.104007,-1.219051 -2.606607,-1.241436 -5.213214,-2.482872 -7.819822,-3.724308 -0.220052,0.05794 -0.440104,0.115885 -0.660156,0.173828 z" />
  </g>
</svg>
